HIERARCHY
ROOT Hips
{
	OFFSET -0.001795 -0.223333 0.028219
	CHANNELS 6 Xposition Yposition Zposition Zrotation Yrotation Xrotation 
	JOINT LeftUpLeg
	{
		OFFSET 0.069520 -0.091406 -0.006815
		CHANNELS 3 Zrotation Yrotation Xrotation
		JOINT LeftLeg
		{
			OFFSET 0.034277 -0.375199 -0.004496
			CHANNELS 3 Zrotation Yrotation Xrotation
			JOINT LeftFoot
			{
				OFFSET -0.013596 -0.397961 -0.043693
				CHANNELS 3 Zrotation Yrotation Xrotation
				JOINT LeftToe
				{
					OFFSET 0.026358 -0.055791 0.119288
					CHANNELS 3 Zrotation Yrotation Xrotation
					End Site
					{
						OFFSET 0.000000 0.000000 0.000000
					}
				}
			}
		}
	}
	JOINT RightUpLeg
	{
		OFFSET -0.067670 -0.090522 -0.004320
		CHANNELS 3 Zrotation Yrotation Xrotation
		JOINT RightLeg
		{
			OFFSET -0.038290 -0.382569 -0.008850
			CHANNELS 3 Zrotation Yrotation Xrotation
			JOINT RightFoot
			{
				OFFSET 0.015774 -0.398415 -0.042312
				CHANNELS 3 Zrotation Yrotation Xrotation
				JOINT RightToe
				{
					OFFSET -0.025372 -0.048144 0.123348
					CHANNELS 3 Zrotation Yrotation Xrotation
					End Site
					{
						OFFSET 0.000000 0.000000 0.000000
					}
				}
			}
		}
	}
	JOINT Spine
	{
		OFFSET -0.002533 0.108963 -0.026696
		CHANNELS 3 Zrotation Yrotation Xrotation
		JOINT Spine1
		{
			OFFSET 0.005487 0.135180 0.001092
			CHANNELS 3 Zrotation Yrotation Xrotation
			JOINT Spine2
			{
				OFFSET 0.001457 0.052922 0.025425
				CHANNELS 3 Zrotation Yrotation Xrotation
				JOINT Neck
				{
					OFFSET -0.002778 0.213870 -0.042857
					CHANNELS 3 Zrotation Yrotation Xrotation
					JOINT Head
					{
						OFFSET 0.005152 0.064970 0.051349
						CHANNELS 3 Zrotation Yrotation Xrotation
						End Site
						{
							OFFSET 0.000000 0.000000 0.000000
						}
					}
				}
				JOINT LeftShoulder
				{
					OFFSET 0.078845 0.121749 -0.034090
					CHANNELS 3 Zrotation Yrotation Xrotation
					JOINT LeftArm
					{
						OFFSET 0.090977 0.030469 -0.008868
						CHANNELS 3 Zrotation Yrotation Xrotation
						JOINT LeftForeArm
						{
							OFFSET 0.259612 -0.012772 -0.027456
							CHANNELS 3 Zrotation Yrotation Xrotation
							JOINT LeftHand
							{
								OFFSET 0.249234 0.008986 -0.001171
								CHANNELS 3 Zrotation Yrotation Xrotation
								End Site
								{
									OFFSET 0.000000 0.000000 0.000000
								}
							}
						}
					}
				}
				JOINT RightShoulder
				{
					OFFSET -0.081759 0.118833 -0.038615
					CHANNELS 3 Zrotation Yrotation Xrotation
					JOINT RightArm
					{
						OFFSET -0.096012 0.032551 -0.009143
						CHANNELS 3 Zrotation Yrotation Xrotation
						JOINT RightForeArm
						{
							OFFSET -0.253742 -0.013329 -0.021401
							CHANNELS 3 Zrotation Yrotation Xrotation
							JOINT RightHand
							{
								OFFSET -0.255298 0.007772 -0.005559
								CHANNELS 3 Zrotation Yrotation Xrotation
								End Site
								{
									OFFSET 0.000000 0.000000 0.000000
								}
							}
						}
					}
				}
			}
		}
	}
}
MOTION
Frames: 8
Frame Time: 0.050000
0.722701 0.958806 0.117421 -2.141904 58.821737 -2.012929 5.970629 -1.518868 6.840344 -6.472667 -1.263646 -8.513713 0.609441 11.571817 17.023573 0.000000 0.000000 0.000000 -3.919830 -1.196471 3.634008 2.066768 -0.682589 -5.754751 -9.453966 -12.116163 24.644612 0.000000 0.000000 0.000000 8.345559 -0.819628 4.038173 -4.698375 2.466539 -22.260675 -1.825707 5.952458 29.142645 12.384080 2.785767 -31.136347 0.000000 0.000000 0.000000 -24.761404 -10.097636 -14.834722 -42.920792 15.857457 -7.372345 -10.839488 -33.223236 0.846600 0.000000 0.000000 0.000000 38.028039 -11.768151 9.737309 42.599903 18.531848 -5.714361 -2.450430 27.357431 1.647960 0.000000 0.000000 0.000000 
0.722041 0.958296 0.117260 -2.261291 59.124627 -2.136937 6.114813 -1.543974 6.694357 -6.553172 -1.268910 -8.365919 0.524233 11.390240 16.806287 0.000000 0.000000 0.000000 -3.975412 -1.185750 3.388255 2.323743 -0.728939 -5.263086 -9.610187 -12.393434 24.469375 0.000000 0.000000 0.000000 8.335243 -0.844791 4.241133 -4.714273 2.479000 -22.184565 -1.789026 5.996541 29.094328 12.391400 2.809127 -31.121694 0.000000 0.000000 0.000000 -24.898667 -10.590046 -14.747900 -42.982489 15.762543 -7.282765 -10.090531 -33.515923 0.631653 0.000000 0.000000 0.000000 38.174503 -11.585543 10.077597 42.749960 18.836093 -5.685320 -3.019729 27.720717 1.580430 0.000000 0.000000 0.000000 
0.721116 0.957994 0.117220 -2.430172 59.514047 -2.194741 6.347204 -1.565459 6.328939 -6.700468 -1.273374 -8.091078 0.377731 11.168925 16.615380 0.000000 0.000000 0.000000 -3.983284 -1.157944 3.032366 2.584158 -0.783647 -4.789005 -9.822162 -12.704040 24.406243 0.000000 0.000000 0.000000 8.373238 -0.890142 4.518733 -4.810048 2.486509 -22.255737 -1.850595 5.938009 29.108576 12.501815 2.790512 -31.226232 0.000000 0.000000 0.000000 -25.034015 -10.862352 -14.770602 -42.983365 15.406836 -7.089865 -9.436026 -33.874002 0.431894 0.000000 0.000000 0.000000 38.275671 -11.383812 10.410607 42.949919 19.283951 -5.596966 -3.215726 28.201446 1.597467 0.000000 0.000000 0.000000 
0.720111 0.957755 0.117327 -2.686402 59.857724 -2.266154 6.514141 -1.594056 6.135940 -6.631720 -1.297528 -8.224517 0.239253 11.001152 16.531315 0.000000 0.000000 0.000000 -3.922925 -1.130348 2.795033 2.828878 -0.841193 -4.661114 -10.000966 -12.939615 24.440545 0.000000 0.000000 0.000000 8.342464 -0.899020 4.590086 -4.695193 2.474355 -22.229339 -1.912342 6.051696 29.060881 12.598438 2.811520 -31.363040 0.000000 0.000000 0.000000 -24.992364 -11.109505 -14.737617 -43.134571 15.028345 -6.969319 -8.824451 -34.133311 0.225007 0.000000 0.000000 0.000000 38.397188 -11.206678 10.792587 43.190009 19.651584 -5.532653 -3.324814 28.595755 1.613140 0.000000 0.000000 0.000000 
0.719234 0.957723 0.117581 -2.946595 60.092112 -2.276443 6.715661 -1.601947 5.737174 -6.628495 -1.290976 -8.078226 0.144544 10.881890 16.451888 0.000000 0.000000 0.000000 -3.832536 -1.080631 2.403709 3.024132 -0.889321 -4.398750 -10.148117 -13.114512 24.487774 0.000000 0.000000 0.000000 8.308049 -0.887313 4.513938 -4.618254 2.474557 -22.109710 -1.861741 6.101630 28.880400 12.757350 2.733504 -31.220971 0.000000 0.000000 0.000000 -25.055054 -11.367748 -14.720564 -43.115509 14.863690 -6.851917 -8.795320 -34.209014 0.205005 0.000000 0.000000 0.000000 38.271373 -11.046778 10.966853 43.383431 19.874175 -5.421983 -3.361971 29.073277 1.659042 0.000000 0.000000 0.000000 
0.718649 0.957674 0.117884 -2.983563 60.375008 -2.100883 6.839183 -1.606329 5.444927 -6.708664 -1.321246 -8.088093 0.000794 10.751411 16.446840 0.000000 0.000000 0.000000 -3.762510 -1.048240 2.136602 3.026209 -0.894010 -4.304747 -10.331269 -13.337264 24.554524 0.000000 0.000000 0.000000 8.269081 -0.865376 4.354405 -4.559865 2.465334 -22.106856 -1.969619 6.105598 28.857804 12.796137 2.750548 -31.265232 0.000000 0.000000 0.000000 -24.847502 -11.461107 -14.628202 -43.356137 14.552314 -6.821373 -8.788323 -34.452141 0.148609 0.000000 0.000000 0.000000 38.171502 -10.889013 11.184324 43.502997 20.121193 -5.331985 -3.190649 29.534515 1.743168 0.000000 0.000000 0.000000 
0.718294 0.957583 0.118247 -3.081898 60.605781 -2.064806 6.922693 -1.639508 5.475793 -6.673351 -1.379598 -8.456645 -0.112428 10.673342 16.511316 0.000000 0.000000 0.000000 -3.785083 -1.059423 2.164862 3.233939 -0.946505 -4.546615 -10.413746 -13.430265 24.637950 0.000000 0.000000 0.000000 8.155790 -0.822120 4.128978 -4.439334 2.447108 -22.124242 -1.938503 5.996862 28.870836 12.710239 2.790515 -31.126297 0.000000 0.000000 0.000000 -24.757643 -11.377176 -14.655878 -43.297488 14.511736 -6.812518 -9.170889 -34.435194 0.255863 0.000000 0.000000 0.000000 38.039808 -10.893326 11.165967 43.532499 20.205767 -5.271337 -2.879243 29.899290 1.856034 0.000000 0.000000 0.000000 
0.718079 0.957469 0.118639 -3.201032 60.626828 -1.957055 7.036764 -1.663692 5.422916 -6.692107 -1.434941 -8.780277 -0.106845 10.719952 16.594155 0.000000 0.000000 0.000000 -3.772938 -1.033907 1.937836 3.389766 -0.984047 -4.547429 -10.432717 -13.448314 24.625247 0.000000 0.000000 0.000000 8.130352 -0.781216 3.810023 -4.420302 2.442743 -22.122865 -1.895449 5.954242 28.826278 12.768035 2.759901 -31.124858 0.000000 0.000000 0.000000 -24.697772 -11.220525 -14.700897 -43.368891 14.521424 -6.857460 -9.488573 -34.685766 0.328202 0.000000 0.000000 0.000000 37.790471 -10.826465 11.127778 43.449378 20.310136 -5.179238 -2.311896 30.168705 2.010421 0.000000 0.000000 0.000000 
